# AST/ASF file generated using VICON BodyLanguage
# -----------------------------------------------
:version 1.10
:name VICON
:units
  mass 1.0
  length 0.45
  angle deg
:documentation
   .ast/.asf automatically generated from VICON data using
   VICON BodyBuilder and BodyLanguage model FoxedUp or BRILLIANT.MOD
:root
   order TX TY TZ RX RY RZ
   axis XYZ
   position 0 0 0  
   orientation 0 0 0 
:bonedata
  begin
     id 1 
     name lhipjoint
     direction 0.662698 -0.695252 0.27831 
     length 2.53073 
     axis 0 0 0  XYZ
  end
  begin
     id 2 
     name lfemur
     direction 0.34202 -0.939693 0  
     length 7.16147  
     axis 0 0 20  XYZ
    dof rx ry rz
    limits (-160.0 20.0)
           (-70.0 70.0)
           (-60.0 70.0)
  end
  begin
     id 3 
     name ltibia
     direction 0.34202 -0.939693 0   
     length 7.63967   
     axis 0 0 20   XYZ
    dof rx
    limits (-10.0 170.0)
  end
  begin
     id 4 
     name lfoot
     direction 0.0938457 -0.257721 0.961651   
     length 1.89793   
     axis -90 7.62852e-016 20   XYZ
    dof rx rz
    limits (-45.0 90.0)
           (-70.0 20.0)
  end
  begin
     id 5 
     name ltoes
     direction -0.00116841 -0.0030592 0.999995   
     length 0.955649   
     axis -90 7.62852e-016 20   XYZ
    dof rx
    limits (-90.0 20.0)
  end
  begin
     id 6 
     name rhipjoint
     direction -0.649445 -0.705948 0.282592   
     length 2.49238  
     axis 0 0 0  XYZ 
  end
  begin
     id 7 
     name rfemur
     direction -0.34202 -0.939693 0   
     length 6.90728   
     axis 0 0 -20   XYZ
    dof rx ry rz
    limits (-160.0 20.0)
           (-70.0 70.0)
           (-70.0 60.0)
  end
  begin
     id 8 
     name rtibia
     direction -0.34202 -0.939693 0   
     length 7.72868   
     axis 0 0 -20   XYZ
    dof rx
    limits (-10.0 170.0)
 end
 begin
     id 9 
     name rfoot
     direction -0.0920068 -0.252865 0.963117   
     length 1.97476  
     axis -90 -7.62852e-016 -20   XYZ
    dof rx rz
    limits (-45.0 90.0)
           (-20.0 70.0)
  end
  begin
     id 10 
     name rtoes
     direction 0.000391322 0.00230649 0.999997   
     length 0.992641   
     axis -90 -7.62852e-016 -20   XYZ
    dof rx
    limits (-90.0 20.0)
  end
  begin
     id 11 
     name lowerback
     direction -0.00875327 0.998321 -0.0572635   
     length 2.20024   
     axis 0 0 0   XYZ
    dof rx ry rz
    limits (-20.0 45.0)
           (-30.0 30.0)
           (-30.0 30.0)
  end
  begin
     id 12 
     name upperback
     direction 0.00753931 0.999972 -0.000360425   
     length 2.20538   
     axis 0 0 0   XYZ
    dof rx ry rz
    limits (-20.0 45.0)
           (-30.0 30.0)
           (-30.0 30.0)
  end
  begin
     id 13 
     name thorax
     direction 0.0117767 0.999601 0.0256663   
     length 2.21508   
     axis 0 0 0   XYZ
    dof rx ry rz
    limits (-20.0 45.0)
           (-30.0 30.0)
           (-30.0 30.0)
  end
  begin
     id 14 
     name lowerneck
     direction 0.060228 0.994909 0.0807986   
     length 1.7607   
     axis 0 0 0   XYZ
    dof rx ry rz
    limits (-20.0 45.0)
           (-30.0 30.0)
           (-30.0 30.0)
  end
  begin
     id 15 
     name upperneck
     direction -0.0563647 0.959594 -0.275685   
     length 1.75612   
     axis 0 0 0   XYZ
    dof rx ry rz
    limits (-20.0 45.0)
           (-30.0 30.0)
           (-30.0 30.0)
  end
  begin
     id 16
     name head
     direction -0.0161544 0.99458 -0.102714  
     length 1.79288  
     axis 0 0 0   XYZ
    dof rx ry rz
    limits (-20.0 45.0)
           (-30.0 30.0)
           (-30.0 30.0)
  end
  begin
     id 17 
     name lclavicle
     direction 0.93913 0.332189 -0.087669  
     length 3.52087  
     axis 0 0 0   XYZ
    dof ry rz
    limits (-20.0 10.0)
           (0.0 20.0)
  end
  begin
     id 18 
     name lhumerus
     direction 1 -4.48974e-011 -2.70836e-027   
     length 5.35289   
     axis -180 -30 -90   XYZ
    dof rx ry rz
    limits (-60.0 90.0)
           (-90.0 90.0)
           (-90.0 90.0)
  end
  begin
     id 19
     name lradius
     direction 1 -4.48961e-011 -9.76021e-027   
     length 3.27727   
     axis -180 -30 -90   XYZ
    dof rx
    limits (-10.0 170.0)
  end
  begin
     id 20
     name lwrist
     direction 1 -4.49103e-011 -2.23668e-026   
     length 1.63864   
     axis 1.44924e-014 90 90   XYZ
    dof ry
    limits (-180.0 0.0)
 end
  begin
     id 21 
     name lhand
     direction 1 3.0697e-005 0.000161777   
     length 0.54443   
     axis 2.85318e-014 90 90   XYZ
    dof rx rz
    limits (-90.0 90.0)
           (-45.0 45.0)
  end
  begin
     id 22 
     name lfingers
     direction 1 -4.49027e-011 -8.9447e-026   
     length 0.438912   
     axis 5.70628e-014 90 90   XYZ
    dof rx
    limits (0.0 90.0)
  end
  begin
     id 23
     name lthumb
     direction 0.707058 2.6516e-005 0.707156   
     length 0.630274   
     axis -90 45 -3.53137e-014   XYZ
    dof rx rz
    limits (-45.0 45.0)
           (-45.0 45.0)
  end
  begin
     id 24 
     name rclavicle
     direction -0.95274 0.284984 -0.105215   
     length 3.43401  
     axis 0 0 0   XYZ 
    dof ry rz
    limits (-10.0 20.0)
           (-20.0 0.0)
  end
  begin
     id 25 
     name rhumerus
     direction -0.999999 -0.000575019 -0.00106829  
     length 5.52077   
     axis -180 30 90   XYZ
    dof rx ry rz
    limits (-90.0 60.0)
           (-90.0 90.0)
           (-90.0 90.0)
  end
  begin
     id 26 
     name rradius
     direction -1 -4.4879e-011 -6.35415e-027   
     length 3.32364   
     axis -180 30 90   XYZ
    dof rx
    limits (-10.0 170.0)
  end
  begin
     id 27 
     name rwrist
     direction -1 -4.49048e-011 -9.98542e-027   
     length 1.66182   
     axis 6.32482e-015 -90 -90   XYZ
    dof ry
    limits (-180.0 0.0)
  end
  begin
     id 28
     name rhand
     direction -1 -4.48978e-011 -1.99771e-026   
     length 0.732235   
     axis 1.27479e-014 -90 -90   XYZ
    dof rx rz
    limits (-90.0 90.0)
           (-45.0 45.0)
  end
  begin
     id 29
     name rfingers
     direction -1 -4.49144e-011 -3.99245e-026   
     length 0.590347   
     axis 2.5496e-014 -90 -90   XYZ
    dof rx
    limits (0.0 90.0)
  end
  begin
     id 30
     name rthumb
     direction -0.707107 -6.35121e-011 0.707107   
     length 0.847624   
     axis -90 -45 -2.82974e-014   XYZ
    dof rx rz
    limits (-45.0 45.0)
           (-45.0 45.0)
  end
:hierarchy
  begin
    root lhipjoint rhipjoint lowerback
    lhipjoint lfemur
    lfemur ltibia
    ltibia lfoot
    lfoot ltoes
    rhipjoint rfemur
    rfemur rtibia
    rtibia rfoot
    rfoot rtoes
    lowerback upperback
    upperback thorax
    thorax lowerneck lclavicle rclavicle
    lowerneck upperneck
    upperneck head
    lclavicle lhumerus
    lhumerus lradius
    lradius lwrist
    lwrist lhand lthumb
    lhand lfingers
    rclavicle rhumerus
    rhumerus rradius
    rradius rwrist
    rwrist rhand rthumb
    rhand rfingers
  end

#!OML:ASF G:\Work\Work\Patient Classification 1\Elijah\terrain1\Elijah.ASF
:FULLY-SPECIFIED
:DEGREES
186
root 15.9821 18.8731 8.52216 4.03446 -4.92751 -3.11439
lowerback 7.66627 0.330043 0.277221
upperback 2.97926 0.45117 -0.154118
thorax -1.21862 0.22537 -0.352774
lowerneck -16.6859 14.045 9.40102
upperneck 34.3177 23.9486 -13.867
head 19.0786 9.20934 -2.50312
rclavicle -7.45443e-015 -5.1684e-015
rhumerus -40.1354 2.47541 -86.7793
rradius 60.6113
rwrist -6.48113
rhand -13.0408 22.6193
rfingers 7.12502
rthumb 13.0539 -6.95226
lclavicle -7.45443e-015 -5.1684e-015
lhumerus -39.4009 21.4448 71.1328
lradius 40.4533
lwrist -1.64683
lhand -10.1925 22.3136
lfingers 7.12502
lthumb 15.7983 51.689
rfemur -23.7293 -3.40801 19.5964
rtibia 99.9532
rfoot -8.31073 19.6626
rtoes -9.48946
lfemur -27.5574 -3.58741 -21.6679
ltibia 48.2346
lfoot -21.751 -2.27563
ltoes -15.3133
187
root 15.9794 18.8701 8.59117 4.13747 -4.70092 -3.34589
lowerback 7.80417 0.329037 0.292479
upperback 2.7761 0.456403 0.071092
thorax -1.50597 0.226538 -0.131839
lowerneck -15.9867 14.3688 9.69439
upperneck 33.8051 24.6769 -14.7202
head 19.0078 9.50731 -2.76141
rclavicle 2.08724e-015 1.66979e-014
rhumerus -40.5349 3.3285 -87.1593
rradius 60.7588
rwrist -5.5527
rhand -12.4198 23.3992
rfingers 7.12502
rthumb 13.6525 -6.13301
lclavicle 2.08724e-015 1.66979e-014
lhumerus -39.3557 19.9686 72.6043
lradius 42.6485
lwrist -2.37174
lhand -9.94877 20.6508
lfingers 7.12502
lthumb 16.033 50.0074
rfemur -23.456 -3.22203 20.1254
rtibia 99.7216
rfoot -7.86234 18.999
rtoes -8.89767
lfemur -27.0502 -3.89387 -21.4802
ltibia 47.8963
lfoot -21.9287 -1.18148
ltoes -19.8054
188
root 15.9794 18.9049 8.66417 4.30999 -4.45883 -3.44574
lowerback 7.82417 0.267214 0.151721
upperback 2.67859 0.368256 0.252944
thorax -1.62003 0.18164 0.141872
lowerneck -15.3572 14.5517 10.1374
upperneck 32.9876 25.0487 -15.6257
head 18.7568 9.69529 -3.14299
rclavicle -1.5207e-014 1.47101e-014
rhumerus -40.5898 4.3334 -87.6326
rradius 60.75
rwrist -4.57945
rhand -12.1958 23.7684
rfingers 7.12502
rthumb 13.8683 -5.74921
lclavicle -1.5207e-014 1.47101e-014
lhumerus -39.2357 18.7741 73.939
lradius 45.0039
lwrist -2.97316
lhand -9.68944 19.9331
lfingers 7.12502
lthumb 16.2827 49.2694
rfemur -23.2748 -3.07563 20.4727
rtibia 99.3938
rfoot -6.97423 18.4222
rtoes -7.78345
lfemur -26.8752 -4.33556 -21.3405
ltibia 47.421
lfoot -21.4865 -1.13655
ltoes -21.209
189
root 15.9876 18.9254 8.73492 4.44311 -4.18513 -3.1362
lowerback 7.75355 0.206709 -0.088127
upperback 2.62194 0.267738 0.13573
thorax -1.63972 0.131584 0.165153
lowerneck -15.2347 14.5747 10.4983
upperneck 32.8424 25.0556 -15.8749
head 18.7745 9.72955 -3.30823
rclavicle -1.59028e-015 1.59028e-015
rhumerus -40.7532 5.07933 -88.3287
rradius 60.7503
rwrist -3.45439
rhand -12.6073 24.2043
rfingers 7.12502
rthumb 13.4718 -5.34002
lclavicle -1.59028e-015 1.59028e-015
lhumerus -38.8302 17.8207 74.8297
lradius 46.6771
lwrist -4.039
lhand -9.5363 18.5528
lfingers 7.12502
lthumb 16.4301 47.877
rfemur -23.219 -3.15361 20.1741
rtibia 99.2652
rfoot -6.02227 17.975
rtoes -7.64321
lfemur -26.2527 -4.80359 -21.7337
ltibia 46.7011
lfoot -21.7461 -1.15543
ltoes -19.376
190
root 15.9768 18.9498 8.81305 4.56381 -4.46702 -2.88494
lowerback 7.6573 0.567779 -0.267141
upperback 2.31012 0.730232 -0.0325517
thorax -1.90936 0.362772 0.0497672
lowerneck -15.1249 14.5545 10.5862
upperneck 34.016 25.0527 -15.192
head 19.2861 9.764 -3.06959
rclavicle -8.94531e-016 3.57812e-015
rhumerus -41.6781 5.08125 -88.8081
rradius 61.0731
rwrist -2.77283
rhand -12.8924 24.3984
rfingers 7.12502
rthumb 13.1969 -5.16391
lclavicle -8.94531e-016 3.57812e-015
lhumerus -38.8424 16.273 75.7138
lradius 48.309
lwrist -5.02622
lhand -9.73169 17.2175
lfingers 7.12502
lthumb 16.242 46.5572
rfemur -23.4136 -2.71036 20.1362
rtibia 99.2741
rfoot -5.09914 17.2613
rtoes -7.59609
lfemur -25.554 -4.60107 -22.0052
ltibia 45.9435
lfoot -21.5587 -0.631606
ltoes -21.3348
191
root 15.9794 19.0264 8.90155 4.76988 -4.4724 -2.78944
lowerback 7.50895 1.14991 0.304973
upperback 1.65087 1.54204 -0.265481
thorax -2.4874 0.764085 -0.591205
lowerneck -14.7479 13.7998 8.89362
upperneck 35.8533 23.7512 -12.7089
head 19.0833 9.28551 -2.1458
rclavicle -6.36111e-015 1.23246e-014
rhumerus -43.399 3.86805 -88.7514
rradius 61.645
rwrist -2.35029
rhand -12.8671 24.3332
rfingers 7.12502
rthumb 13.2213 -5.22748
lclavicle -6.36111e-015 1.23246e-014
lhumerus -39.4153 13.5098 76.9902
lradius 50.249
lwrist -5.61132
lhand -9.87199 17.7846
lfingers 7.12502
lthumb 16.1069 47.1353
rfemur -23.3992 -2.58072 20.1654
rtibia 98.9701
rfoot -3.99606 16.6486
rtoes -6.5784
lfemur -25.0696 -4.69682 -22.1025
ltibia 44.9884
lfoot -20.9609 -1.12618
ltoes -19.1134
192
root 15.9833 19.0337 8.96718 4.99931 -4.33467 -2.77082
lowerback 7.18266 1.242 0.546347
upperback 1.62083 1.67867 -0.393057
thorax -2.32445 0.831394 -0.86297
lowerneck -13.9891 14.1113 9.49364
upperneck 33.6313 24.3405 -14.518
head 18.2367 9.5571 -2.87261
rclavicle 4.37326e-015 -1.31198e-014
rhumerus -43.4435 3.70717 -89.1446
rradius 61.6289
rwrist -1.81789
rhand -12.9872 24.4834
rfingers 7.12502
rthumb 13.1055 -5.08482
lclavicle 4.37326e-015 -1.31198e-014
lhumerus -39.097 12.2392 77.8448
lradius 52.0844
lwrist -5.90625
lhand -10.4671 18.243
lfingers 7.12502
lthumb 15.5338 47.639
rfemur -23.7941 -2.65517 20.2786
rtibia 99.117
rfoot -2.87911 15.87
rtoes -7.10684
lfemur -24.5265 -4.83562 -22.1688
ltibia 44.108
lfoot -20.7113 -1.07909
ltoes -19.0481
193
root 15.9882 19.0808 9.03885 5.16141 -4.32287 -2.41018
lowerback 7.06204 1.33123 0.366652
upperback 1.56916 1.77851 -0.593658
thorax -2.30786 0.881808 -0.975219
lowerneck -11.9446 13.9365 11.5905
upperneck 32.1009 24.0836 -16.596
head 17.6807 9.70426 -4.26089
rclavicle 1.11319e-014 -6.75868e-015
rhumerus -43.3712 3.62316 -89.53
rradius 61.4355
rwrist -1.46354
rhand -13.1561 24.8312
rfingers 7.12502
rthumb 12.9427 -4.74737
lclavicle 1.11319e-014 -6.75868e-015
lhumerus -38.7495 11.3562 78.4967
lradius 53.6341
lwrist -6.06207
lhand -11.5492 16.8941
lfingers 7.12502
lthumb 14.4914 46.368
rfemur -24.1464 -2.71856 19.966
rtibia 99.1641
rfoot -1.9847 15.1909
rtoes -10.2745
lfemur -23.9648 -5.04317 -22.5465
ltibia 43.1319
lfoot -20.3517 -1.52078
ltoes -16.7324
194
root 15.9948 19.2226 9.12661 5.28245 -4.38564 -2.02533
lowerback 7.21906 1.3899 -0.0119749
upperback 1.40106 1.82418 -0.709362
thorax -2.57582 0.905139 -0.89356
lowerneck -12.2667 14.0188 11.1932
upperneck 32.5322 24.1224 -15.9101
head 17.7739 9.7026 -3.87996
rclavicle -4.37326e-015 5.1684e-015
rhumerus -43.4268 3.72983 -89.8642
rradius 61.2609
rwrist -1.41516
rhand -13.2508 25.0324
rfingers 7.12502
rthumb 12.8515 -4.55193
lclavicle -4.37326e-015 5.1684e-015
lhumerus -38.5318 10.8545 79.0359
lradius 55.0453
lwrist -6.16169
lhand -12.214 16.6814
lfingers 7.12502
lthumb 13.8508 46.2002
rfemur -24.2543 -2.75896 19.6019
rtibia 98.7826
rfoot -0.731433 14.5345
rtoes -12.5085
lfemur -24.0082 -5.63688 -22.6636
ltibia 42.2588
lfoot -19.1705 -4.22765
ltoes -1.35749
195
root 15.9928 19.266 9.18296 5.47224 -4.32586 -2.08289
lowerback 7.44509 1.42517 0.0689211
upperback 1.07471 1.87523 -0.709
thorax -3.03542 0.927368 -0.955938
lowerneck -13.9454 14.1473 9.75454
upperneck 34.6318 24.19 -13.5836
head 18.5928 9.59036 -2.5671
rclavicle -1.97791e-014 8.74653e-015
rhumerus -43.7633 3.6916 -90.1668
rradius 61.1251
rwrist -1.5982
rhand -13.2641 24.9952
rfingers 7.12502
rthumb 12.8386 -4.58996
lclavicle -1.97791e-014 8.74653e-015
lhumerus -38.7756 10.2524 79.5102
lradius 56.6652
lwrist -6.11425
lhand -12.0315 18.5186
lfingers 7.12502
lthumb 14.0266 48.0253
rfemur -24.8939 -2.90245 19.84
rtibia 98.9949
rfoot 0.974651 13.6259
rtoes -10.5496
lfemur -23.5787 -5.58134 -22.5733
ltibia 41.3235
lfoot -18.9406 -4.33866
ltoes -1.66726
